<svg width="432" height="277" viewBox="0 0 432 277" fill="none" xmlns="http://www.w3.org/2000/svg">
<path d="M419.019 276.368C422.366 276.369 425.578 275.051 427.961 272.7C430.343 270.349 431.704 267.155 431.749 263.808C432.279 229.168 435.069 178.068 369.829 163.928C317.029 152.498 348.329 58.6582 206.139 64.7282C104.069 69.0782 131.139 155.108 51.8191 162.278C-0.990925 167.048 -1.45092 233.838 0.579076 264.438C0.792244 267.664 2.22395 270.689 4.58403 272.898C6.94411 275.108 10.056 276.338 13.2891 276.338L419.019 276.368Z" fill="#B5DFEA"/>
<path opacity="0.55" d="M369.829 163.958C317.029 152.528 348.329 58.6882 206.139 64.7582C181.859 65.7582 164.899 71.4482 152.069 79.5682C156.389 78.9982 160.979 78.5682 165.869 78.3982C308.069 72.3282 276.759 166.158 329.559 177.598C394.109 191.598 392.069 241.748 391.499 276.368H419.019C422.366 276.369 425.578 275.051 427.961 272.7C430.343 270.349 431.704 267.155 431.749 263.808C432.279 229.198 435.069 178.098 369.829 163.958Z" fill="#90CEDD"/>
<path d="M306.729 60.8082L139.789 41.2683C138.092 41.0689 136.373 41.206 134.729 41.6716C133.085 42.1373 131.549 42.9224 130.209 43.9821C128.869 45.0418 127.751 46.3553 126.919 47.8474C126.086 49.3396 125.556 50.9812 125.359 52.6782L112.899 159.438C112.701 161.134 112.839 162.853 113.306 164.495C113.772 166.138 114.557 167.673 115.617 169.012C116.676 170.351 117.989 171.468 119.481 172.3C120.972 173.131 122.613 173.661 124.309 173.858L291.309 193.348C293.005 193.546 294.724 193.408 296.366 192.942C298.009 192.475 299.544 191.69 300.883 190.631C302.222 189.571 303.339 188.258 304.171 186.766C305.002 185.275 305.532 183.634 305.729 181.938L318.189 75.1782C318.574 71.7531 317.583 68.3153 315.434 65.6207C313.285 62.926 310.154 61.195 306.729 60.8082Z" fill="#D7F0F9"/>
<path d="M316.959 85.7483L318.189 75.1782C318.574 71.7531 317.583 68.3153 315.434 65.6207C313.285 62.926 310.154 61.195 306.729 60.8082L139.789 41.2683C138.092 41.0689 136.373 41.206 134.729 41.6716C133.085 42.1373 131.549 42.9224 130.209 43.9821C128.869 45.0418 127.75 46.3553 126.918 47.8474C126.086 49.3396 125.556 50.9812 125.359 52.6782L124.129 63.2483L316.959 85.7483Z" fill="#0582C1"/>
<path d="M151.139 127.888L172.299 90.5982C172.962 89.4299 173.956 88.4833 175.155 87.8767C176.354 87.2702 177.705 87.0307 179.039 87.1882C180.839 87.3988 182.482 88.3154 183.607 89.7367C184.733 91.1579 185.247 92.9676 185.039 94.7682L180.629 132.488H180.819C181.442 132.561 182.044 132.757 182.591 133.065C183.138 133.373 183.618 133.786 184.003 134.281C184.388 134.776 184.671 135.343 184.835 135.949C184.999 136.554 185.041 137.186 184.959 137.808C184.811 139.057 184.174 140.195 183.189 140.975C182.203 141.755 180.948 142.112 179.699 141.968H179.519L178.709 148.838C178.633 149.506 178.426 150.152 178.1 150.74C177.774 151.328 177.334 151.845 176.808 152.262C176.281 152.679 175.676 152.988 175.03 153.171C174.383 153.354 173.706 153.408 173.039 153.328C172.372 153.251 171.726 153.043 171.139 152.717C170.552 152.39 170.035 151.951 169.618 151.424C169.201 150.898 168.892 150.294 168.709 149.648C168.525 149.001 168.471 148.325 168.549 147.658L169.349 140.788L154.119 139.008C153.5 138.936 152.902 138.743 152.358 138.44C151.814 138.136 151.335 137.729 150.949 137.24C150.563 136.752 150.276 136.192 150.106 135.593C149.937 134.994 149.886 134.367 149.959 133.748L150.359 130.288C150.444 129.442 150.71 128.623 151.139 127.888ZM170.539 130.678L173.269 107.288C173.275 107.271 173.277 107.252 173.276 107.233C173.275 107.215 173.27 107.196 173.261 107.18C173.253 107.163 173.241 107.148 173.227 107.136C173.213 107.123 173.197 107.114 173.179 107.108C173.161 107.102 173.143 107.1 173.124 107.101C173.105 107.103 173.087 107.108 173.07 107.116C173.054 107.124 173.039 107.136 173.026 107.15C173.014 107.164 173.005 107.181 172.999 107.198L160.489 129.258C160.439 129.348 160.412 129.449 160.41 129.552C160.408 129.654 160.431 129.756 160.478 129.848C160.524 129.939 160.592 130.018 160.676 130.078C160.76 130.137 160.857 130.175 160.959 130.188L169.849 131.188C170.007 131.206 170.166 131.163 170.294 131.069C170.422 130.974 170.51 130.835 170.539 130.678Z" fill="#79C9E8"/>
<path d="M244.529 138.808L265.699 101.518C266.362 100.352 267.354 99.4061 268.551 98.7997C269.747 98.1933 271.096 97.9528 272.429 98.1083C273.321 98.2113 274.184 98.4892 274.969 98.926C275.753 99.3629 276.444 99.9501 277.001 100.654C277.558 101.358 277.971 102.165 278.216 103.029C278.461 103.893 278.534 104.796 278.429 105.688L274.029 143.408H274.219C274.837 143.479 275.435 143.671 275.978 143.974C276.521 144.276 277 144.683 277.385 145.171C277.771 145.659 278.056 146.218 278.225 146.816C278.394 147.415 278.443 148.041 278.369 148.658C278.298 149.276 278.106 149.875 277.804 150.419C277.502 150.962 277.095 151.441 276.607 151.828C276.12 152.214 275.561 152.501 274.962 152.671C274.363 152.841 273.737 152.891 273.119 152.818H272.929L272.129 159.688C271.971 161.034 271.285 162.262 270.222 163.103C269.159 163.943 267.805 164.326 266.459 164.168C265.791 164.093 265.145 163.886 264.557 163.559C263.97 163.233 263.452 162.794 263.035 162.267C262.618 161.74 262.309 161.136 262.126 160.489C261.943 159.842 261.89 159.166 261.969 158.498L262.769 151.628L247.529 149.808C246.911 149.736 246.312 149.543 245.768 149.24C245.224 148.936 244.745 148.529 244.359 148.04C243.973 147.552 243.686 146.992 243.517 146.393C243.347 145.794 243.297 145.167 243.369 144.548L243.779 141.088C243.875 140.286 244.13 139.511 244.529 138.808ZM263.959 141.578L266.689 118.188C266.693 118.154 266.685 118.119 266.666 118.09C266.647 118.061 266.619 118.039 266.586 118.029C266.553 118.018 266.517 118.019 266.485 118.032C266.453 118.045 266.426 118.068 266.409 118.098L253.909 140.158C253.859 140.248 253.832 140.349 253.83 140.452C253.828 140.554 253.852 140.656 253.898 140.748C253.944 140.839 254.012 140.918 254.096 140.978C254.18 141.037 254.277 141.075 254.379 141.088L263.269 142.088C263.427 142.106 263.586 142.064 263.714 141.969C263.842 141.874 263.93 141.735 263.959 141.578Z" fill="#79C9E8"/>
<path d="M202.549 105.948C203.779 95.4182 210.029 90.0382 220.189 91.2282C230.349 92.4182 235.189 99.0782 233.979 109.618L229.979 143.868C228.749 154.408 222.489 159.778 212.329 158.598C202.169 157.418 197.329 150.738 198.549 140.198L202.549 105.948ZM208.819 142.068C208.269 146.778 210.139 148.798 213.429 149.188C216.719 149.578 218.999 148.028 219.549 143.318L223.699 107.808C224.249 103.098 222.389 101.068 219.099 100.688C215.809 100.308 213.519 101.848 212.979 106.548L208.819 142.068Z" fill="#79C9E8"/>
<path d="M143.809 56.0184C143.731 56.7068 143.45 57.3566 143.003 57.8855C142.555 58.4143 141.961 58.7985 141.295 58.9892C140.629 59.18 139.921 59.1688 139.261 58.957C138.602 58.7453 138.02 58.3425 137.589 57.7997C137.158 57.2569 136.899 56.5985 136.843 55.908C136.786 55.2174 136.937 54.5258 137.274 53.9206C137.611 53.3154 138.12 52.8239 138.737 52.5084C139.354 52.193 140.051 52.0676 140.739 52.1483C141.658 52.2562 142.498 52.724 143.073 53.4493C143.648 54.1746 143.913 55.0984 143.809 56.0184Z" fill="white"/>
<path d="M160.549 57.9783C160.467 58.6634 160.184 59.3088 159.736 59.8331C159.288 60.3574 158.694 60.7371 158.03 60.9241C157.366 61.1111 156.661 61.0971 156.005 60.8838C155.349 60.6705 154.771 60.2676 154.343 59.7259C153.916 59.1842 153.659 58.528 153.605 57.8403C153.55 57.1525 153.701 56.464 154.037 55.8618C154.374 55.2596 154.882 54.7707 155.496 54.4568C156.11 54.1429 156.804 54.0182 157.489 54.0983C157.945 54.1517 158.386 54.2944 158.787 54.5183C159.187 54.7423 159.54 55.0431 159.824 55.4035C160.108 55.7639 160.319 56.1769 160.443 56.6187C160.568 57.0605 160.604 57.5226 160.549 57.9783Z" fill="#79C9E8"/>
<path d="M177.959 59.9983C177.879 60.684 177.598 61.3306 177.15 61.8564C176.703 62.3821 176.109 62.7634 175.445 62.9519C174.781 63.1404 174.076 63.1277 173.419 62.9154C172.762 62.703 172.183 62.3007 171.755 61.7591C171.327 61.2176 171.069 60.5612 171.014 59.873C170.958 59.1848 171.109 58.4958 171.445 57.893C171.782 57.2902 172.29 56.8008 172.904 56.4867C173.519 56.1726 174.213 56.0478 174.899 56.1283C175.818 56.236 176.656 56.7042 177.23 57.4299C177.804 58.1555 178.066 59.0793 177.959 59.9983Z" fill="white"/>
<path d="M110.749 181.598C109.364 188.243 108.734 195.022 108.869 201.808C109.209 210.958 108.119 271.118 108.119 271.118H115.469C115.469 271.118 125.929 224.008 126.319 220.288C126.709 216.568 131.959 179.368 131.959 179.368L110.749 181.598Z" fill="#00668E"/>
<path d="M115.639 178.858C115.639 178.858 117.329 191.708 120.209 200.858C123.089 210.008 137.209 271.138 137.209 271.138H144.559C144.559 271.138 143.209 224.028 142.699 220.308C142.189 216.588 138.469 179.378 138.469 179.378L115.639 178.858Z" fill="#0582C1"/>
<path d="M137.809 271.118V276.248H151.809C151.982 276.249 152.15 276.194 152.289 276.091C152.427 275.988 152.529 275.843 152.578 275.678C152.628 275.512 152.623 275.335 152.563 275.173C152.504 275.011 152.394 274.872 152.249 274.778C150.249 273.418 146.929 271.538 143.889 271.118H137.809Z" fill="#0582C1"/>
<path d="M108.499 271.118V276.248H122.499C122.665 276.244 122.826 276.188 122.959 276.089C123.092 275.989 123.191 275.85 123.241 275.692C123.292 275.533 123.292 275.363 123.241 275.205C123.191 275.047 123.092 274.908 122.959 274.808C120.909 273.448 117.639 271.568 114.589 271.148L108.499 271.118Z" fill="#0582C1"/>
<path d="M133.729 119.068C133.729 119.068 138.549 111.758 133.019 111.068C128.779 110.518 127.019 111.778 127.019 111.778C127.019 111.778 122.129 111.248 119.459 113.558C117.629 115.148 110.909 127.458 121.779 131.908C132.649 136.358 130.329 124.908 130.329 124.908L133.729 119.068Z" fill="#00668E"/>
<path d="M133.019 111.048C128.779 110.498 127.019 111.758 127.019 111.758C127.019 111.758 122.129 111.228 119.459 113.538C117.629 115.128 110.909 127.438 121.779 131.888C126.889 133.988 129.079 132.578 129.969 130.488C119.659 133.398 118.539 120.968 120.239 117.428C121.939 113.888 126.119 115.498 126.119 115.498C127.739 111.408 133.019 111.858 135.199 112.168C134.935 111.839 134.604 111.568 134.229 111.375C133.853 111.182 133.441 111.071 133.019 111.048Z" fill="#05556D"/>
<path d="M126.959 122.628C126.959 122.628 125.539 121.198 124.469 122.628C123.399 124.058 124.109 127.258 125.889 127.438C125.889 127.438 125.359 132.068 121.799 131.888V135.638H130.169V132.808C130.169 132.808 135.339 130.678 135.169 126.398C135.082 123.904 134.6 121.44 133.739 119.098C131.939 121.003 129.551 122.246 126.959 122.628Z" fill="#818181"/>
<path d="M128.239 133.978C129.069 134.328 128.929 134.848 128.969 135.638H130.169V132.808C130.169 132.808 128.169 133.458 125.169 131.808C126.084 132.674 127.118 133.405 128.239 133.978Z" fill="#282828"/>
<path d="M129.959 115.808C129.959 115.808 125.619 114.078 125.109 115.378C124.779 116.228 125.619 116.958 126.779 117.698L125.779 117.858C125.726 117.865 125.677 117.888 125.637 117.923C125.597 117.958 125.569 118.004 125.555 118.055C125.541 118.106 125.543 118.16 125.559 118.211C125.576 118.261 125.607 118.305 125.649 118.338C126.504 118.701 127.433 118.852 128.359 118.778L129.959 115.808Z" fill="#818181"/>
<path d="M160.959 126.678C152.679 120.548 130.069 115.678 130.069 115.678L128.209 119.078C128.209 119.078 148.729 127.078 147.379 128.218C146.579 128.918 136.549 133.508 133.159 135.058C132.423 135.387 131.625 135.551 130.819 135.538L120.429 135.478C117.894 135.356 115.366 135.823 113.042 136.843C110.719 137.863 108.664 139.409 107.039 141.358C101.769 147.428 92.7988 161.478 92.7988 161.478L107.899 183.678L109.569 186.128V186.338L111.059 186.488C115.909 186.938 131.459 188.168 139.699 186.418L139.919 186.368L139.529 149.948C147.481 143.742 154.746 136.702 161.199 128.948C161.345 128.789 161.456 128.601 161.524 128.396C161.591 128.191 161.615 127.974 161.592 127.759C161.569 127.544 161.501 127.337 161.392 127.15C161.283 126.964 161.135 126.803 160.959 126.678ZM110.299 176.348L108.829 173.128L104.139 162.878L111.919 154.158L110.519 173.288L110.299 176.348Z" fill="white"/>
<path d="M108.829 173.128L110.299 176.348L109.589 186.058L109.569 186.088L107.899 183.638L108.829 173.128Z" fill="#626262"/>
<g style="mix-blend-mode:multiply" opacity="0.29">
<path d="M136.019 148.568C134.619 149.568 135.019 158.568 134.629 164.218C134.049 173.648 133.489 181.808 133.909 187.078C135.854 186.972 137.789 186.728 139.699 186.348L139.919 186.298L139.529 149.878C147.482 143.672 154.746 136.632 161.199 128.878C161.339 128.72 161.444 128.534 161.508 128.333C161.571 128.132 161.593 127.92 161.57 127.71C161.548 127.501 161.482 127.298 161.376 127.115C161.271 126.932 161.129 126.773 160.959 126.648C153.319 134.687 144.972 142.023 136.019 148.568Z" fill="#464646"/>
</g>
<path d="M142.699 220.298C142.329 217.608 140.299 197.488 139.189 186.488L133.909 187.078C133.909 187.078 141.609 250.408 142.119 271.128H144.559C144.559 271.128 143.209 224.018 142.699 220.298Z" fill="#00668E"/>
<path d="M108.839 123.668L107.249 120.808C108.53 118.397 108.851 115.591 108.147 112.953C107.444 110.315 105.768 108.041 103.457 106.587C101.146 105.134 98.3707 104.608 95.6884 105.117C93.0061 105.626 90.6155 107.13 88.9969 109.329C87.3783 111.527 86.6515 114.257 86.9625 116.969C87.2735 119.682 88.5993 122.176 90.6736 123.951C92.7479 125.726 95.417 126.651 98.1448 126.539C100.873 126.427 103.457 125.287 105.379 123.348L108.839 123.668Z" fill="#0582C1"/>
<path d="M92.1089 114.808H92.5289V116.308C92.5289 116.768 92.6689 116.968 92.9889 116.968C93.3089 116.968 93.4189 116.838 93.6589 116.548V114.808H94.0689V117.268H93.7289V116.878C93.6402 117.013 93.5202 117.124 93.3792 117.203C93.2381 117.281 93.0802 117.324 92.9189 117.328C92.3989 117.328 92.1589 116.988 92.1589 116.328L92.1089 114.808Z" fill="white"/>
<path d="M95.8192 117.458V118.288H95.4092V114.808H95.7492V115.088C95.9645 114.886 96.2441 114.765 96.5392 114.748C97.1692 114.748 97.5392 115.238 97.5392 115.998C97.5392 116.758 97.0392 117.328 96.4692 117.328C96.2168 117.309 95.9778 117.207 95.7892 117.038L95.8192 117.458ZM96.4192 116.968C96.8292 116.968 97.1292 116.598 97.1292 115.968C97.1292 115.338 96.9392 115.068 96.4792 115.068C96.2252 115.09 95.9891 115.208 95.8192 115.398V116.688C95.9816 116.847 96.1932 116.946 96.4192 116.968Z" fill="white"/>
<path d="M98.6492 116.698C98.85 116.879 99.109 116.982 99.3792 116.988C99.6992 116.988 99.8592 116.818 99.8592 116.608C99.8592 116.398 99.5692 116.248 99.2992 116.138C99.0292 116.028 98.5692 115.848 98.5692 115.438C98.5692 115.028 98.8792 114.738 99.4092 114.738C99.6908 114.738 99.9633 114.838 100.179 115.018L99.9792 115.278C99.8238 115.142 99.6258 115.064 99.4192 115.058C99.1092 115.058 98.9692 115.228 98.9692 115.418C98.9692 115.608 99.2392 115.728 99.5092 115.838C99.7792 115.948 100.259 116.118 100.259 116.578C100.259 117.038 99.9392 117.318 99.3592 117.318C99.0261 117.311 98.7053 117.191 98.4492 116.978L98.6492 116.698Z" fill="white"/>
<path d="M101.559 116.678C101.623 116.674 101.687 116.69 101.742 116.722C101.797 116.755 101.841 116.803 101.868 116.861C101.896 116.919 101.905 116.984 101.895 117.048C101.885 117.111 101.856 117.17 101.812 117.217C101.769 117.263 101.712 117.296 101.649 117.31C101.587 117.324 101.521 117.319 101.462 117.295C101.402 117.272 101.351 117.231 101.315 117.178C101.278 117.125 101.259 117.062 101.259 116.998C101.258 116.958 101.264 116.917 101.279 116.879C101.293 116.841 101.315 116.806 101.343 116.776C101.37 116.746 101.404 116.723 101.441 116.706C101.478 116.689 101.518 116.68 101.559 116.678Z" fill="white"/>
<path d="M103.329 116.678C103.393 116.676 103.456 116.693 103.51 116.727C103.564 116.761 103.606 116.81 103.632 116.869C103.658 116.927 103.665 116.992 103.654 117.054C103.643 117.117 103.613 117.175 103.569 117.221C103.525 117.266 103.468 117.298 103.405 117.311C103.343 117.324 103.278 117.319 103.219 117.295C103.16 117.271 103.11 117.23 103.074 117.177C103.038 117.124 103.019 117.062 103.019 116.998C103.018 116.957 103.025 116.915 103.04 116.876C103.055 116.838 103.077 116.802 103.106 116.772C103.135 116.743 103.17 116.719 103.208 116.703C103.246 116.686 103.288 116.678 103.329 116.678Z" fill="white"/>
<path d="M67.5089 253.298C67.5089 253.298 65.2389 251.188 66.7589 243.168C68.2789 235.148 72.1389 227.438 70.2389 218.728C68.3389 210.018 53.5189 188.078 53.4689 186.618C53.4189 185.158 48.8889 212.148 56.5589 222.808C64.2289 233.468 65.1589 237.138 64.8189 242.728C64.4789 248.318 64.8989 252.828 65.7389 254.128L67.5089 253.298Z" fill="#79C9E8"/>
<path d="M66.0992 237.168C65.2092 240.748 64.6692 249.718 66.0992 251.868C66.2292 252.068 66.4192 251.958 66.6592 251.578C66.2192 250.098 65.9392 247.498 66.7592 243.168C68.2792 235.168 72.1392 227.438 70.2392 218.728C68.3392 210.018 53.5192 188.078 53.4692 186.618C53.4692 186.618 55.7092 204.898 63.2292 217.488C68.6192 226.498 66.9592 233.588 66.0992 237.168Z" fill="#49B4D6"/>
<path d="M70.2089 252.748C70.2089 252.748 65.8489 241.868 73.2089 232.448C80.5689 223.028 92.3989 210.928 92.6389 206.138C92.6389 206.138 95.6389 228.888 86.0589 235.328C76.4789 241.768 69.7389 242.808 71.3989 252.708L70.2089 252.748Z" fill="#79C9E8"/>
<path d="M80.5891 230.808C69.8691 238.608 68.9891 247.598 70.6491 251.758C70.7051 251.913 70.7982 252.051 70.9203 252.161C71.0424 252.271 71.1897 252.349 71.3491 252.388C69.9091 242.828 76.5991 241.738 86.0891 235.388C95.5791 229.038 92.6691 206.198 92.6691 206.198C92.6691 206.198 91.2991 222.948 80.5891 230.808Z" fill="#49B4D6"/>
<path d="M63.0389 252.988C63.8931 249.049 64.1158 244.998 63.6989 240.988C62.9589 234.808 56.4589 231.288 50.3889 224.718C47.2589 221.338 46.3389 203.468 48.2689 201.808C48.2689 201.808 37.5589 214.808 39.2089 224.308C40.8589 233.808 58.3489 239.998 59.9589 244.588C60.9226 247.306 61.4229 250.165 61.4389 253.048L63.0389 252.988Z" fill="#79C9E8"/>
<path d="M44.6491 206.918C41.1091 216.508 44.7391 228.128 56.5091 235.348C65.1691 240.658 62.4091 251.708 62.4091 251.708L63.8291 247.348C63.9774 245.235 63.9339 243.113 63.6991 241.008C62.9591 234.808 56.4591 231.288 50.3891 224.718C47.3891 221.458 46.3891 204.718 48.0791 202.048C46.8543 203.613 45.7095 205.238 44.6491 206.918Z" fill="#49B4D6"/>
<path d="M48.0791 202.048L48.2691 201.808C48.1962 201.88 48.1324 201.961 48.0791 202.048Z" fill="#49B4D6"/>
<path d="M72.4492 252.268C72.4492 252.268 74.9592 242.948 81.1792 241.698C87.3992 240.448 94.5292 231.258 94.9092 229.458C94.9592 229.458 93.8592 246.808 72.4492 252.268Z" fill="#79C9E8"/>
<path d="M80.8188 244.808C77.0188 246.708 75.4288 249.268 74.8188 251.598C93.8788 245.468 94.8188 229.488 94.8188 229.488C94.5826 230.143 94.2452 230.758 93.8188 231.308C92.0688 234.558 87.5488 241.418 80.8188 244.808Z" fill="#49B4D6"/>
<path d="M85.8989 248.808H53.3989L57.2589 273.108C57.3997 274.001 57.8549 274.815 58.5426 275.401C59.2302 275.988 60.1049 276.31 61.0089 276.308H78.2889C79.1929 276.31 80.0676 275.988 80.7553 275.401C81.4429 274.815 81.8982 274.001 82.0389 273.108L85.8989 248.808Z" fill="white"/>
<path d="M85.2589 252.858L85.8989 248.838H53.3989L54.0389 252.858H85.2589Z" fill="#F3F3F3"/>
<path d="M78.0189 248.808L74.1689 273.078C74.0263 273.97 73.5705 274.783 72.8833 275.369C72.196 275.955 71.3224 276.278 70.4189 276.278H78.2889C79.1929 276.28 80.0677 275.958 80.7553 275.371C81.443 274.785 81.8982 273.971 82.0389 273.078L85.8989 248.808H78.0189Z" fill="#F3F3F3"/>
<path d="M310.019 205.558H163.159V235.418H310.019V205.558Z" fill="white"/>
<g style="mix-blend-mode:multiply" opacity="0.29">
<path d="M310.019 205.558H163.159V212.808H310.019V205.558Z" fill="#464646"/>
</g>
<path d="M175.929 205.558H189.339L185.739 212.808H172.329L175.929 205.558Z" fill="#303030"/>
<path d="M206.129 205.558H219.529L215.939 212.808H202.539L206.129 205.558Z" fill="#303030"/>
<path d="M236.329 205.558H249.729L246.139 212.808H232.739L236.329 205.558Z" fill="#303030"/>
<path d="M266.529 205.558H279.929L276.329 212.808H262.939L266.529 205.558Z" fill="#303030"/>
<path d="M310.019 205.558V205.758L306.529 212.808H293.139L296.729 205.558H310.019Z" fill="#303030"/>
<path d="M191.789 235.418H181.439V276.248H191.789V235.418Z" fill="#79C9E8"/>
<path d="M191.799 235.418H189.449V276.248H191.799V235.418Z" fill="#49B4D6"/>
<path d="M292.549 235.418H282.199V276.248H292.549V235.418Z" fill="#79C9E8"/>
<path d="M292.549 235.418H289.489V276.248H292.549V235.418Z" fill="#49B4D6"/>
<path d="M191.789 235.388H181.439V240.528H191.789V235.388Z" fill="#49B4D6"/>
<path d="M292.549 235.388H282.199V240.528H292.549V235.388Z" fill="#49B4D6"/>
<path d="M191.789 200.888H181.439V205.528H191.789V200.888Z" fill="#79C9E8"/>
<path d="M191.799 200.888H189.449V205.528H191.799V200.888Z" fill="#49B4D6"/>
<path d="M292.549 200.888H282.199V205.528H292.549V200.888Z" fill="#79C9E8"/>
<path d="M292.549 200.888H289.489V205.528H292.549V200.888Z" fill="#49B4D6"/>
<path d="M191.789 204.948H181.439V205.528H191.789V204.948Z" fill="#49B4D6"/>
<path d="M292.549 204.948H282.199V205.528H292.549V204.948Z" fill="#49B4D6"/>
<path d="M189.339 205.558L174.519 235.418H163.159V231.298L175.929 205.558H189.339Z" fill="#0582C1"/>
<path d="M206.129 205.558L191.319 235.418H204.719L219.529 205.558H206.129Z" fill="#0582C1"/>
<path d="M249.73 205.558L234.92 235.418H221.52L236.33 205.558H249.73Z" fill="#0582C1"/>
<path d="M279.929 205.558L265.119 235.418H251.719L266.529 205.558H279.929Z" fill="#0582C1"/>
<path d="M296.729 205.558L281.919 235.418H295.319L310.019 205.758L296.729 205.558Z" fill="#0582C1"/>
<path d="M189.339 205.558L185.739 212.808H172.329L175.929 205.558H189.339Z" fill="#00668E"/>
<path d="M219.529 205.558L215.939 212.808H202.539L206.129 205.558H219.529Z" fill="#00668E"/>
<path d="M249.729 205.558L246.139 212.808H232.739L236.329 205.558H249.729Z" fill="#00668E"/>
<path d="M279.929 205.558L276.329 212.808H262.939L266.529 205.558H279.929Z" fill="#00668E"/>
<path d="M310.019 205.758L306.529 212.808H293.139L296.729 205.558L310.019 205.758Z" fill="#00668E"/>
<path style="mix-blend-mode:overlay" opacity="0.55" d="M307.489 218.478H167.249V233.418H307.489V218.478Z" fill="url(#paint0_linear_303_324)"/>
<path d="M187.815 203.537C192.847 202.719 196.262 197.976 195.443 192.945C194.625 187.914 189.882 184.498 184.851 185.317C179.82 186.135 176.404 190.878 177.223 195.909C178.041 200.941 182.784 204.356 187.815 203.537Z" fill="white"/>
<path d="M190.529 194.408C190.527 193.582 190.28 192.775 189.82 192.089C189.359 191.403 188.706 190.868 187.942 190.554C187.178 190.239 186.338 190.157 185.527 190.32C184.717 190.482 183.973 190.881 183.39 191.466C182.806 192.051 182.409 192.796 182.249 193.606C182.088 194.417 182.171 195.257 182.488 196.02C182.805 196.783 183.341 197.436 184.028 197.895C184.715 198.353 185.523 198.598 186.349 198.598C186.899 198.598 187.443 198.49 187.951 198.279C188.459 198.068 188.92 197.76 189.308 197.37C189.696 196.981 190.004 196.519 190.214 196.011C190.423 195.503 190.53 194.958 190.529 194.408Z" fill="#0582C1"/>
<path d="M288.776 203.546C293.807 202.727 297.222 197.985 296.404 192.954C295.585 187.922 290.843 184.507 285.811 185.326C280.78 186.144 277.365 190.886 278.183 195.918C279.002 200.949 283.744 204.365 288.776 203.546Z" fill="white"/>
<path d="M291.489 194.408C291.487 193.582 291.24 192.775 290.78 192.089C290.319 191.403 289.666 190.868 288.902 190.554C288.138 190.239 287.297 190.157 286.487 190.32C285.677 190.482 284.933 190.881 284.35 191.466C283.766 192.051 283.369 192.796 283.209 193.606C283.048 194.417 283.131 195.257 283.448 196.02C283.765 196.783 284.3 197.436 284.988 197.895C285.675 198.353 286.483 198.598 287.309 198.598C287.859 198.598 288.403 198.49 288.911 198.279C289.419 198.068 289.88 197.76 290.268 197.37C290.656 196.981 290.964 196.519 291.174 196.011C291.383 195.503 291.49 194.958 291.489 194.408Z" fill="#0582C1"/>
<path d="M365.669 273.078H318.889L326.049 255.738L328.919 248.738L329.719 246.828L331.009 243.698L331.269 243.068L334.149 236.068L334.679 234.798L339.779 222.418C339.981 221.921 340.327 221.496 340.773 221.197C341.218 220.898 341.742 220.738 342.279 220.738C342.815 220.738 343.339 220.898 343.785 221.197C344.23 221.496 344.576 221.921 344.779 222.418L349.879 234.798L350.409 236.068L353.279 243.068L353.549 243.698L354.839 246.828L355.629 248.738L358.509 255.738L365.669 273.078Z" fill="white"/>
<g style="mix-blend-mode:multiply" opacity="0.29">
<path d="M321.959 265.648L318.889 273.078H365.669L362.599 265.648H321.959Z" fill="#464646"/>
</g>
<path d="M368.719 268.638H315.149V276.208H368.719V268.638Z" fill="#79C9E8"/>
<path d="M368.719 268.638H357.149V276.208H368.719V268.638Z" fill="#49B4D6"/>
<g style="mix-blend-mode:multiply" opacity="0.29">
<path d="M363.829 268.638H357.209L351.889 255.748L349.019 248.748L348.219 246.828L346.959 243.698L346.699 243.058L343.819 236.058L343.259 234.808L338.959 224.368L339.759 222.368C339.962 221.871 340.308 221.446 340.753 221.147C341.198 220.848 341.722 220.688 342.259 220.688C342.795 220.688 343.32 220.848 343.765 221.147C344.21 221.446 344.556 221.871 344.759 222.368L349.859 234.748L350.389 236.018L353.259 243.018L353.529 243.658L354.819 246.778L355.609 248.698L358.489 255.698L363.829 268.638Z" fill="#464646"/>
</g>
<path d="M353.28 243.058H331.27L334.15 236.058H350.41L353.28 243.058Z" fill="#0582C1"/>
<path d="M358.509 255.728V255.738H326.049V255.728L328.919 248.728H355.629L358.509 255.728Z" fill="#0582C1"/>
<path d="M353.279 243.058H346.669L343.789 236.058H350.409L353.279 243.058Z" fill="#00668E"/>
<path d="M358.51 255.728V255.738H351.89V255.728L349.02 248.728H355.63L358.51 255.728Z" fill="#00668E"/>
<path d="M67.5193 103.018C69.2148 103.036 70.8591 102.437 72.1465 101.334C73.434 100.23 74.2771 98.6967 74.5193 97.0184C74.608 96.389 74.6515 95.754 74.6493 95.1184C74.6493 91.4053 73.1743 87.8444 70.5487 85.2189C67.9232 82.5934 64.3623 81.1184 60.6493 81.1184C60.3393 81.1184 60.0193 81.1184 59.7093 81.1184C59.3672 77.322 57.5765 73.8031 54.7088 71.292C51.8411 68.7809 48.1167 67.4705 44.3084 67.6326C40.5001 67.7947 36.9005 69.4169 34.2566 72.1626C31.6126 74.9084 30.1275 78.5667 30.1093 82.3784C30.1093 82.7384 30.1093 83.0984 30.1093 83.4584C27.9326 82.2473 25.4859 81.6041 22.9951 81.588C20.5043 81.5719 18.0495 82.1834 15.8573 83.3662C13.6652 84.549 11.8062 86.2649 10.4521 88.3555C9.09796 90.4461 8.29222 92.8442 8.10926 95.3284C8.10926 95.3884 8.10926 95.4484 8.10926 95.5084C8.06035 96.4688 8.20763 97.4291 8.5421 98.3308C8.87658 99.2324 9.39123 100.057 10.0547 100.753C10.7181 101.449 11.5164 102.003 12.4009 102.38C13.2854 102.758 14.2376 102.951 15.1993 102.948L67.5193 103.018Z" fill="#D7F0F9"/>
<path d="M400.649 113.978C411.649 113.978 412.299 97.3681 401.279 96.8281H400.369C398.454 96.8254 396.551 97.1258 394.729 97.7181C393.989 93.2405 391.664 89.1777 388.18 86.2695C384.696 83.3612 380.283 81.8008 375.745 81.8722C371.207 81.9437 366.846 83.6423 363.455 86.6589C360.064 89.6755 357.869 93.8094 357.269 98.3081C353.556 96.5448 349.342 96.1379 345.359 97.1581C335.709 99.6381 337.739 113.998 347.699 113.998L400.649 113.978Z" fill="#D7F0F9"/>
<path d="M268.099 32.1282C279.099 32.1282 279.739 15.5282 268.719 14.9882H267.809C265.895 14.987 263.992 15.2839 262.169 15.8682C261.435 11.3861 259.113 7.31748 255.628 4.40483C252.143 1.49218 247.727 -0.0703278 243.185 0.00243113C238.644 0.0751901 234.28 1.77836 230.89 4.80116C227.5 7.82396 225.31 11.9649 224.719 16.4682C222.37 15.3382 219.796 14.7536 217.189 14.7582C215.715 14.7568 214.247 14.9416 212.819 15.3082C203.169 17.7982 205.199 32.1482 215.159 32.1482L268.099 32.1282Z" fill="#D7F0F9"/>
<path d="M92.409 62.8182C107.017 62.8182 118.859 50.9761 118.859 36.3682C118.859 21.7603 107.017 9.91821 92.409 9.91821C77.801 9.91821 65.959 21.7603 65.959 36.3682C65.959 50.9761 77.801 62.8182 92.409 62.8182Z" fill="white"/>
<path d="M92.6189 9.91821C97.3784 13.0425 101.003 17.6186 102.955 22.9669C104.907 28.3152 105.082 34.1505 103.453 39.606C101.825 45.0615 98.4805 49.8463 93.9164 53.2498C89.3524 56.6533 83.8123 58.4939 78.1189 58.4982H77.8989C81.3372 60.752 85.2534 62.1734 89.3369 62.6494C93.4203 63.1254 97.5585 62.643 101.423 61.2405C105.287 59.838 108.772 57.554 111.599 54.5698C114.427 51.5855 116.52 47.9832 117.713 44.0489C118.905 40.1145 119.164 35.9563 118.469 31.9044C117.773 27.8525 116.143 24.0185 113.708 20.7066C111.272 17.3947 108.098 14.6962 104.437 12.8252C100.776 10.9542 96.7299 9.96231 92.6189 9.92822V9.91821Z" fill="#F3F3F3"/>
<defs>
<linearGradient id="paint0_linear_303_324" x1="237.369" y1="244.148" x2="237.369" y2="220.098" gradientUnits="userSpaceOnUse">
<stop stop-color="white"/>
<stop offset="0.12" stop-color="white" stop-opacity="0.82"/>
<stop offset="0.3" stop-color="white" stop-opacity="0.58"/>
<stop offset="0.47" stop-color="white" stop-opacity="0.37"/>
<stop offset="0.64" stop-color="white" stop-opacity="0.21"/>
<stop offset="0.78" stop-color="white" stop-opacity="0.1"/>
<stop offset="0.91" stop-color="white" stop-opacity="0.02"/>
<stop offset="1" stop-color="white" stop-opacity="0"/>
</linearGradient>
</defs>
</svg>
