<?xml version="1.0" encoding="UTF-8" standalone="no"?>
<!DOCTYPE svg PUBLIC "-//W3C//DTD SVG 1.1//EN" "http://www.w3.org/Graphics/SVG/1.1/DTD/svg11.dtd">
<svg xmlns="http://www.w3.org/2000/svg" version="1.1" viewBox="0.00 0.00 593.00 474.00">
<path fill="#0d0d0d" d="
  M 207.58 81.40
  L 232.39 8.06
  A 0.33 0.33 0.0 0 1 233.03 8.16
  L 235.31 85.54
  A 0.33 0.33 0.0 0 1 234.93 85.88
  L 207.84 81.83
  A 0.33 0.33 0.0 0 1 207.58 81.40
  Z"
/>
<path fill="#0d0d0d" d="
  M 92.36 42.29
  Q 92.41 42.25 92.48 42.24
  Q 92.58 42.23 92.80 42.44
  L 149.26 95.64
  Q 149.88 96.21 149.19 96.70
  Q 146.59 98.55 138.46 104.57
  Q 130.32 110.59 127.80 112.54
  Q 127.13 113.05 126.76 112.29
  L 92.37 42.75
  Q 92.24 42.48 92.28 42.39
  Q 92.31 42.33 92.36 42.29
  Z"
/>
<path fill="#0d0d0d" d="
  M 182.24 355.51
  L 92.84 355.51
  A 0.31 0.31 0.0 0 1 92.60 355.01
  L 306.25 86.09
  A 0.31 0.31 0.0 0 1 306.79 86.18
  L 343.98 192.93
  A 0.31 0.31 0.0 0 1 343.80 193.32
  L 328.50 199.19
  A 0.31 0.31 0.0 0 1 328.10 198.99
  L 306.73 126.48
  A 0.31 0.31 0.0 0 0 306.16 126.42
  L 182.51 355.35
  A 0.31 0.31 0.0 0 1 182.24 355.51
  Z"
/>
<path fill="#0d0d0d" d="
  M 147.48 270.31
  A 0.35 0.35 0.0 0 1 146.99 270.36
  L 144.05 268.02
  A 98.47 97.46 38.5 0 1 127.66 130.45
  L 128.92 128.85
  A 98.47 97.46 38.5 0 1 266.66 113.88
  L 269.60 116.22
  A 0.35 0.35 0.0 0 1 269.66 116.71
  L 147.48 270.31
  Z"
/>
<path fill="#0d0d0d" d="
  M 431.17 184.70
  L 451.48 153.55
  A 0.31 0.31 0.0 0 1 451.62 153.43
  L 507.88 128.96
  A 0.31 0.31 0.0 0 1 508.26 129.42
  L 484.48 164.77
  A 0.31 0.31 0.0 0 1 484.34 164.89
  L 431.54 185.16
  A 0.31 0.31 0.0 0 1 431.17 184.70
  Z"
/>
<path fill="#0d0d0d" d="
  M 379.81 204.38
  L 397.71 176.90
  A 0.33 0.33 0.0 0 1 397.85 176.78
  L 440.81 158.10
  A 0.33 0.33 0.0 0 1 441.22 158.58
  L 421.42 188.97
  A 0.33 0.33 0.0 0 1 421.26 189.10
  L 380.20 204.86
  A 0.33 0.33 0.0 0 1 379.81 204.38
  Z"
/>
<path fill="#0d0d0d" d="
  M 91.95 191.72
  L 18.60 166.89
  A 0.33 0.33 0.0 0 1 18.69 166.25
  L 96.10 163.95
  A 0.33 0.33 0.0 0 1 96.44 164.33
  L 92.38 191.46
  A 0.33 0.33 0.0 0 1 91.95 191.72
  Z"
/>
<path fill="#0d0d0d" d="
  M 436.49 235.97
  L 392.18 245.53
  A 0.33 0.33 0.0 0 1 391.84 245.03
  L 424.84 194.39
  A 0.33 0.33 0.0 0 1 425.00 194.26
  L 477.48 174.11
  A 0.33 0.33 0.0 0 1 477.87 174.61
  L 436.69 235.83
  A 0.33 0.33 0.0 0 1 436.49 235.97
  Z"
/>
<path fill="#0d0d0d" d="
  M 328.42 224.08
  L 343.96 200.24
  A 0.33 0.33 0.0 0 1 344.10 200.12
  L 387.04 181.45
  A 0.33 0.33 0.0 0 1 387.45 181.93
  L 370.01 208.69
  A 0.33 0.33 0.0 0 1 369.85 208.82
  L 328.81 224.57
  A 0.33 0.33 0.0 0 1 328.42 224.08
  Z"
/>
<path fill="#0d0d0d" d="
  M 383.11 247.48
  L 347.30 255.21
  A 0.32 0.32 0.0 0 1 346.96 254.72
  L 373.42 214.12
  A 0.32 0.32 0.0 0 1 373.58 213.99
  L 414.63 198.23
  A 0.32 0.32 0.0 0 1 415.01 198.71
  L 383.31 247.34
  A 0.32 0.32 0.0 0 1 383.11 247.48
  Z"
/>
<path fill="#0d0d0d" d="
  M 277.00 243.82
  L 290.16 223.63
  A 0.32 0.32 0.0 0 1 290.30 223.51
  L 333.28 204.82
  A 0.32 0.32 0.0 0 1 333.68 205.28
  L 318.61 228.40
  A 0.32 0.32 0.0 0 1 318.45 228.53
  L 277.38 244.30
  A 0.32 0.32 0.0 0 1 277.00 243.82
  Z"
/>
<path fill="#0d0d0d" d="
  M 338.29 257.13
  L 302.46 264.87
  A 0.32 0.32 0.0 0 1 302.12 264.38
  L 322.04 233.82
  A 0.32 0.32 0.0 0 1 322.20 233.69
  L 363.27 217.92
  A 0.32 0.32 0.0 0 1 363.65 218.40
  L 338.49 256.99
  A 0.32 0.32 0.0 0 1 338.29 257.13
  Z"
/>
<path fill="#0d0d0d" d="
  M 245.69 255.81
  L 254.76 239.01
  A 0.34 0.34 0.0 0 1 254.93 238.86
  L 279.45 228.20
  A 0.34 0.34 0.0 0 1 279.87 228.70
  L 267.21 248.13
  A 0.34 0.34 0.0 0 1 267.05 248.26
  L 246.11 256.29
  A 0.34 0.34 0.0 0 1 245.69 255.81
  Z"
/>
<path fill="#0d0d0d" d="
  M 257.29 274.05
  L 270.67 253.53
  A 0.32 0.32 0.0 0 1 270.83 253.40
  L 311.88 237.64
  A 0.32 0.32 0.0 0 1 312.26 238.12
  L 293.65 266.67
  A 0.32 0.32 0.0 0 1 293.45 266.81
  L 257.63 274.54
  A 0.32 0.32 0.0 0 1 257.29 274.05
  Z"
/>
<path fill="#0d0d0d" d="
  M 390.67 303.99
  L 353.99 303.99
  A 0.34 0.34 0.0 0 1 353.70 303.46
  L 386.20 253.61
  A 0.34 0.34 0.0 0 1 386.42 253.46
  L 430.54 243.93
  A 0.34 0.34 0.0 0 1 430.89 244.45
  L 390.95 303.84
  A 0.34 0.34 0.0 0 1 390.67 303.99
  Z"
/>
<path fill="#0d0d0d" d="
  M 123.23 272.36
  L 53.43 306.86
  A 0.30 0.30 0.0 0 1 53.08 306.38
  L 106.48 249.73
  A 0.30 0.30 0.0 0 1 106.94 249.75
  L 123.33 271.91
  A 0.30 0.30 0.0 0 1 123.23 272.36
  Z"
/>
<path fill="#0d0d0d" d="
  M 346.02 304.23
  L 315.27 304.23
  A 0.33 0.33 0.0 0 1 314.99 303.72
  L 341.37 263.26
  A 0.33 0.33 0.0 0 1 341.57 263.12
  L 377.37 255.40
  A 0.33 0.33 0.0 0 1 377.71 255.90
  L 346.30 304.08
  A 0.33 0.33 0.0 0 1 346.02 304.23
  Z"
/>
<path fill="#0d0d0d" d="
  M 248.60 276.48
  L 232.72 279.91
  A 0.32 0.32 0.0 0 1 232.37 279.45
  L 240.01 265.29
  A 0.32 0.32 0.0 0 1 240.18 265.15
  L 260.49 257.35
  A 0.32 0.32 0.0 0 1 260.87 257.83
  L 248.80 276.34
  A 0.32 0.32 0.0 0 1 248.60 276.48
  Z"
/>
<path fill="#0d0d0d" d="
  M 307.34 304.42
  L 276.76 304.42
  A 0.41 0.41 0.0 0 1 276.41 303.79
  L 296.52 272.95
  A 0.41 0.41 0.0 0 1 296.77 272.77
  L 332.36 265.09
  A 0.41 0.41 0.0 0 1 332.79 265.72
  L 307.68 304.23
  A 0.41 0.41 0.0 0 1 307.34 304.42
  Z"
/>
<path fill="#0d0d0d" d="
  M 268.75 304.54
  L 237.99 304.54
  A 0.33 0.33 0.0 0 1 237.71 304.03
  L 251.68 282.60
  A 0.33 0.33 0.0 0 1 251.88 282.46
  L 287.69 274.74
  A 0.33 0.33 0.0 0 1 288.03 275.24
  L 269.03 304.39
  A 0.33 0.33 0.0 0 1 268.75 304.54
  Z"
/>
<path fill="#0d0d0d" d="
  M 230.10 304.73
  L 218.71 304.73
  A 0.32 0.32 0.0 0 1 218.42 304.26
  L 227.28 287.86
  A 0.32 0.32 0.0 0 1 227.49 287.70
  L 242.88 284.37
  A 0.32 0.32 0.0 0 1 243.22 284.86
  L 230.36 304.58
  A 0.32 0.32 0.0 0 1 230.10 304.73
  Z"
/>
<path fill="#0d0d0d" d="
  M 362.71 345.55
  L 328.20 343.46
  A 0.34 0.34 0.0 0 1 327.94 342.93
  L 348.55 311.31
  A 0.34 0.34 0.0 0 1 348.83 311.16
  L 385.39 311.16
  A 0.34 0.34 0.0 0 1 385.67 311.69
  L 363.01 345.40
  A 0.34 0.34 0.0 0 1 362.71 345.55
  Z"
/>
<path fill="#0d0d0d" d="
  M 320.60 343.00
  L 291.41 341.23
  A 0.50 0.50 0.0 0 1 291.02 340.46
  L 309.88 311.53
  A 0.50 0.50 0.0 0 1 310.30 311.30
  L 340.65 311.30
  A 0.50 0.50 0.0 0 1 341.07 312.07
  L 321.05 342.78
  A 0.50 0.50 0.0 0 1 320.60 343.00
  Z"
/>
<path fill="#0d0d0d" d="
  M 283.63 340.77
  L 254.03 338.97
  A 0.32 0.32 0.0 0 1 253.78 338.48
  L 271.28 311.64
  A 0.32 0.32 0.0 0 1 271.54 311.49
  L 302.32 311.49
  A 0.32 0.32 0.0 0 1 302.59 311.98
  L 283.92 340.62
  A 0.32 0.32 0.0 0 1 283.63 340.77
  Z"
/>
<path fill="#0d0d0d" d="
  M 209.42 336.28
  L 201.50 335.80
  A 0.45 0.45 0.0 0 1 201.14 335.14
  L 213.65 311.98
  A 0.45 0.45 0.0 0 1 214.05 311.74
  L 224.86 311.74
  A 0.45 0.45 0.0 0 1 225.24 312.44
  L 209.82 336.08
  A 0.45 0.45 0.0 0 1 209.42 336.28
  Z"
/>
<path fill="#0d0d0d" d="
  M 246.55 338.52
  L 216.96 336.73
  A 0.32 0.32 0.0 0 1 216.71 336.24
  L 232.59 311.89
  A 0.32 0.32 0.0 0 1 232.85 311.74
  L 263.61 311.74
  A 0.32 0.32 0.0 0 1 263.88 312.23
  L 246.84 338.37
  A 0.32 0.32 0.0 0 1 246.55 338.52
  Z"
/>
<path fill="#0d0d0d" d="
  M 374.96 411.52
  C 377.30 416.69 387.81 417.51 393.99 418.27
  C 409.65 420.20 421.04 427.91 417.75 445.60
  Q 416.39 452.90 409.56 457.54
  C 401.31 463.15 390.62 463.72 380.77 462.55
  Q 364.32 460.60 357.94 446.15
  A 0.49 0.49 0.0 0 1 358.15 445.52
  L 368.20 439.71
  A 0.75 0.75 0.0 0 1 369.25 440.04
  Q 373.37 448.62 383.79 450.41
  C 391.10 451.67 404.53 450.56 404.85 441.04
  C 405.12 433.04 396.23 431.05 390.18 430.32
  C 375.54 428.54 359.81 425.27 361.01 406.57
  C 361.71 395.75 371.94 389.90 381.55 388.49
  C 394.02 386.65 409.53 388.87 415.93 401.33
  A 0.47 0.47 0.0 0 1 415.74 401.96
  L 406.33 407.40
  Q 405.82 407.70 405.42 407.25
  Q 396.63 397.46 383.01 400.25
  C 377.66 401.34 372.39 405.84 374.96 411.52
  Z"
/>
<path fill="#0d0d0d" d="
  M 509.02 426.25
  C 508.82 449.21 493.10 463.99 470.04 463.13
  C 449.22 462.34 435.83 446.76 436.01 426.00
  C 436.21 403.04 451.94 388.26 474.99 389.13
  C 495.82 389.91 509.20 405.49 509.02 426.25
  Z
  M 449.31 426.21
  C 449.47 440.13 458.30 450.87 472.78 450.71
  C 487.27 450.55 495.86 439.62 495.71 425.70
  C 495.55 411.78 486.72 401.05 472.24 401.21
  C 457.75 401.37 449.16 412.30 449.31 426.21
  Z"
/>
<path fill="#0d0d0d" d="
  M 205.98 437.25
  L 205.98 460.51
  Q 205.98 461.00 205.49 461.00
  L 193.25 461.00
  Q 192.74 461.00 192.74 460.49
  L 192.74 390.25
  Q 192.74 389.75 193.24 389.75
  Q 206.36 389.73 221.56 390.03
  Q 232.51 390.24 237.10 392.14
  Q 245.50 395.60 249.28 403.32
  C 252.71 410.31 252.45 421.49 247.41 427.97
  Q 242.82 433.89 234.90 435.83
  A 0.63 0.62 -27.7 0 0 234.58 436.85
  L 254.98 459.83
  A 0.71 0.70 -20.7 0 1 254.45 461.00
  L 239.94 461.00
  Q 239.41 461.00 239.07 460.59
  L 219.76 437.70
  Q 219.16 436.99 218.22 436.99
  L 206.24 436.99
  A 0.26 0.26 0.0 0 0 205.98 437.25
  Z
  M 205.97 403.06
  L 206.01 424.48
  A 0.53 0.53 0.0 0 0 206.54 425.01
  L 226.44 424.97
  A 11.49 11.01 -0.1 0 0 237.91 413.94
  L 237.91 413.48
  A 11.49 11.01 -0.1 0 0 226.40 402.49
  L 206.50 402.53
  A 0.53 0.53 0.0 0 0 205.97 403.06
  Z"
/>
<path fill="#0d0d0d" d="
  M 57.28 389.99
  Q 60.88 389.99 64.28 390.19
  Q 64.82 390.23 65.05 390.73
  L 96.28 460.64
  A 0.24 0.23 -12.0 0 1 96.06 460.97
  L 82.08 460.97
  A 0.72 0.72 0.0 0 1 81.42 460.54
  L 75.99 448.39
  Q 75.60 447.52 74.64 447.51
  Q 72.99 447.49 57.28 447.49
  Q 41.58 447.49 39.93 447.51
  Q 38.96 447.52 38.57 448.39
  L 33.15 460.54
  A 0.72 0.72 0.0 0 1 32.49 460.97
  L 18.51 460.98
  A 0.24 0.23 11.9 0 1 18.29 460.65
  L 49.50 390.73
  Q 49.73 390.23 50.28 390.19
  Q 53.68 389.99 57.28 389.99
  Z
  M 44.62 434.35
  A 0.48 0.48 0.0 0 0 45.06 435.02
  L 69.50 435.02
  A 0.48 0.48 0.0 0 0 69.94 434.35
  L 57.72 406.26
  A 0.48 0.48 0.0 0 0 56.84 406.26
  L 44.62 434.35
  Z"
/>
<path fill="#0d0d0d" d="
  M 174.21 460.96
  L 157.57 460.96
  A 0.34 0.34 0.0 0 1 157.32 460.85
  L 128.58 430.58
  A 0.34 0.34 0.0 0 0 127.99 430.81
  L 127.99 460.65
  A 0.34 0.34 0.0 0 1 127.65 460.99
  L 115.10 460.99
  A 0.34 0.34 0.0 0 1 114.76 460.65
  L 114.76 390.34
  A 0.34 0.34 0.0 0 1 115.10 390.00
  L 127.65 390.00
  A 0.34 0.34 0.0 0 1 127.99 390.34
  L 127.99 418.92
  A 0.34 0.34 0.0 0 0 128.58 419.15
  L 154.50 390.12
  A 0.34 0.34 0.0 0 1 154.75 390.01
  L 171.54 390.01
  A 0.34 0.34 0.0 0 1 171.79 390.58
  L 140.33 423.98
  A 0.34 0.34 0.0 0 0 140.33 424.44
  L 174.45 460.39
  A 0.34 0.34 0.0 0 1 174.21 460.96
  Z"
/>
<path fill="#0d0d0d" d="
  M 306.28 447.51
  Q 290.58 447.51 288.92 447.53
  Q 287.96 447.54 287.57 448.41
  L 282.14 460.57
  A 0.72 0.72 0.0 0 1 281.48 461.00
  L 267.50 461.00
  A 0.24 0.23 11.9 0 1 267.28 460.67
  L 298.50 390.74
  Q 298.73 390.24 299.27 390.20
  Q 302.68 390.00 306.28 390.00
  Q 309.88 389.99 313.28 390.20
  Q 313.82 390.23 314.05 390.73
  L 345.29 460.66
  A 0.24 0.23 -12.0 0 1 345.07 460.99
  L 331.09 460.99
  A 0.72 0.72 0.0 0 1 330.43 460.56
  L 325.00 448.41
  Q 324.61 447.54 323.65 447.53
  Q 321.99 447.51 306.28 447.51
  Z
  M 293.59 434.45
  A 0.41 0.41 0.0 0 0 293.97 435.03
  L 318.61 435.03
  A 0.41 0.41 0.0 0 0 318.99 434.45
  L 306.67 406.14
  A 0.41 0.41 0.0 0 0 305.91 406.14
  L 293.59 434.45
  Z"
/>
<path fill="#0d0d0d" d="
  M 581.49 448.94
  L 581.49 460.54
  A 0.45 0.45 0.0 0 1 581.04 460.99
  L 532.21 460.99
  A 0.45 0.45 0.0 0 1 531.76 460.54
  L 531.76 390.44
  A 0.45 0.45 0.0 0 1 532.21 389.99
  L 544.54 389.99
  A 0.45 0.45 0.0 0 1 544.99 390.44
  L 544.99 448.04
  A 0.45 0.45 0.0 0 0 545.44 448.49
  L 581.04 448.49
  A 0.45 0.45 0.0 0 1 581.49 448.94
  Z"
/>
</svg>
